<svg id="visual" viewBox="0 0 960 540" width="960" height="540" xmlns="http://www.w3.org/2000/svg" xmlns:xlink="http://www.w3.org/1999/xlink" version="1.1"><path d="M0 301L20 304.8C40 308.7 80 316.3 120 309.5C160 302.7 200 281.3 240 273.8C280 266.3 320 272.7 360 280.5C400 288.3 440 297.7 480 290.7C520 283.7 560 260.3 600 260.8C640 261.3 680 285.7 720 289C760 292.3 800 274.7 840 265.7C880 256.7 920 256.3 940 256.2L960 256L960 541L940 541C920 541 880 541 840 541C800 541 760 541 720 541C680 541 640 541 600 541C560 541 520 541 480 541C440 541 400 541 360 541C320 541 280 541 240 541C200 541 160 541 120 541C80 541 40 541 20 541L0 541Z" fill="#00a2fa"></path><path d="M0 342L20 347.7C40 353.3 80 364.7 120 364.7C160 364.7 200 353.3 240 350.5C280 347.7 320 353.3 360 358.7C400 364 440 369 480 363.7C520 358.3 560 342.7 600 345.7C640 348.7 680 370.3 720 376.2C760 382 800 372 840 370.2C880 368.3 920 374.7 940 377.8L960 381L960 541L940 541C920 541 880 541 840 541C800 541 760 541 720 541C680 541 640 541 600 541C560 541 520 541 480 541C440 541 400 541 360 541C320 541 280 541 240 541C200 541 160 541 120 541C80 541 40 541 20 541L0 541Z" fill="#007cc1"></path><path d="M0 421L20 420.3C40 419.7 80 418.3 120 420.8C160 423.3 200 429.7 240 422.7C280 415.7 320 395.3 360 395.3C400 395.3 440 415.7 480 413.5C520 411.3 560 386.7 600 374.2C640 361.7 680 361.3 720 363.8C760 366.3 800 371.7 840 376.8C880 382 920 387 940 389.5L960 392L960 541L940 541C920 541 880 541 840 541C800 541 760 541 720 541C680 541 640 541 600 541C560 541 520 541 480 541C440 541 400 541 360 541C320 541 280 541 240 541C200 541 160 541 120 541C80 541 40 541 20 541L0 541Z" fill="#00588a"></path><path d="M0 496L20 486.3C40 476.7 80 457.3 120 454.7C160 452 200 466 240 474.8C280 483.7 320 487.3 360 487.3C400 487.3 440 483.7 480 481.5C520 479.3 560 478.7 600 475C640 471.3 680 464.7 720 467.5C760 470.3 800 482.7 840 481.5C880 480.3 920 465.7 940 458.3L960 451L960 541L940 541C920 541 880 541 840 541C800 541 760 541 720 541C680 541 640 541 600 541C560 541 520 541 480 541C440 541 400 541 360 541C320 541 280 541 240 541C200 541 160 541 120 541C80 541 40 541 20 541L0 541Z" fill="#003757"></path></svg>